<svg xmlns:dc="http://purl.org/dc/elements/1.1/" xmlns:cc="http://creativecommons.org/ns#" xmlns:rdf="http://www.w3.org/1999/02/22-rdf-syntax-ns#" xmlns:svg="http://www.w3.org/2000/svg" xmlns="http://www.w3.org/2000/svg" xmlns:sodipodi="http://sodipodi.sourceforge.net/DTD/sodipodi-0.dtd" xmlns:inkscape="http://www.inkscape.org/namespaces/inkscape" version="1.1" viewBox="0 0 106.254 127.08375000000001" xml:space="preserve" x="0px" y="0px"><g transform="matrix(-0.63932257,0,0,-0.63932257,92.498453,83.381127)"><path d="m 48.915576,83.815767 -10.94178,0 35.24437,-65.812426 12.657781,0 M 35.004082,73.040307 34.990012,83.511169 -0.00117132,55.927502 c 0.05010161,-3.256605 -0.05010997,-7.009586 -1.253e-5,-10.266191 L 34.990009,18.077644 34.961863,28.643748 6.2417435,50.748853 z M 88.162076,28.548504 88.176146,18.077643 123.16733,45.66131 c -0.0501,3.256605 0.0501,7.009586 10e-6,10.266191 L 88.176149,83.511168 88.204295,72.945063 116.92441,50.839959 z"/></g><path style="" d="m 8.4407382,6.1472448 0,89.3725172 89.3725228,0 0,-89.3725172 z" fill="none" stroke="#000000" stroke-width="6.25607634" stroke-miterlimit="4" stroke-opacity="1" stroke-dasharray="none"/><text x="0" y="116.667" fill="#000000" font-size="5px" font-weight="bold" font-family="'Helvetica Neue', Helvetica, Arial-Unicode, Arial, Sans-serif">Created by Muneer A.Safiah</text><text x="0" y="121.667" fill="#000000" font-size="5px" font-weight="bold" font-family="'Helvetica Neue', Helvetica, Arial-Unicode, Arial, Sans-serif">from the Noun Project</text></svg>